<?xml version="1.0" encoding="UTF-8"?>
<svg xmlns="http://www.w3.org/2000/svg" id="Layer_1" data-name="Layer 1" width="905.62" height="242.44" viewBox="0 0 905.62 242.44">
  <title>logo</title>
  <path d="M223.75,766a20,20,0,0,1,4,3.53c8.69,10.14,17.95,17.84,32.15,17.25,14.65-.62,50.4-2.09,110-4.3,8.24-.3,8.13-12.93-.11-13.1-43.76-.88-47.78-.91-73.92-1.21-7.69-.07-7.8-11.86-.11-12.08,37.75-1.16,63-2,74.09-2.34,8.34-.27,8.41-12.86.08-13.24-48.68-2.18-53.32-2.46-74.15-3.64-7.71-.44-7.24-12,.4-11.89,25.12.26,29.32.29,73.39.34,8.43,0,8.81-12.86.4-13.36-58.23-3.49-93.83-5.2-109.14-5.88s-23.66,7.66-32.89,18.26a19.93,19.93,0,0,1-4.25,3.64V662.47h84a84,84,0,0,1,0,168h-84Z" transform="translate(-186.52 -625.24)" style="fill:#ffb200;fill-rule:evenodd"></path>
  <path d="M186.52,625.24H307.74c66.67,0,121.22,54.55,121.22,121.21h0c0,66.67-54.55,121.22-121.22,121.22H186.52V784.29a23,23,0,0,1,23.89-23v82.46h97.33a97.33,97.33,0,0,0,0-194.66H210.41v83.49a23,23,0,0,1-23.89-23Z" transform="translate(-186.52 -625.24)" style="fill:#fff;fill-rule:evenodd"></path>
  <path d="M456.22,673.29q4.45-4,11.71-4t11.72,4a13.23,13.23,0,0,1,4.47,10.33,13,13,0,0,1-4.47,10.13q-4.45,4-11.72,4t-11.71-4a13,13,0,0,1-4.47-10.13A13.23,13.23,0,0,1,456.22,673.29ZM481,713.19v103H454.73v-103Z" transform="translate(-186.52 -625.24)" style="fill:#fff"></path>
  <path d="M531,678.6V816.24H504.76V678.6Z" transform="translate(-186.52 -625.24)" style="fill:#fff"></path>
  <path d="M556.28,673.29q4.47-4,11.72-4t11.72,4a13.25,13.25,0,0,1,4.46,10.33,13,13,0,0,1-4.46,10.13q-4.47,4-11.72,4t-11.72-4a13,13,0,0,1-4.46-10.13A13.25,13.25,0,0,1,556.28,673.29ZM581,713.19v103H554.79v-103Z" transform="translate(-186.52 -625.24)" style="fill:#fff"></path>
  <path d="M684.34,722.68q13.3,10.79,16.65,29.39H673.28a21.4,21.4,0,0,0-7.63-12.93q-6-4.74-15.07-4.74a22.49,22.49,0,0,0-17.39,7.71q-7,7.73-7,22.6t7,22.6A22.47,22.47,0,0,0,650.58,795q9.12,0,15.07-4.74a21.4,21.4,0,0,0,7.63-12.93H701q-3.35,18.6-16.65,29.39t-33.2,10.79a54.82,54.82,0,0,1-26.78-6.42,45.11,45.11,0,0,1-18.23-18.32q-6.51-11.89-6.51-28.09t6.51-28.18a44.45,44.45,0,0,1,18.23-18.32,55.56,55.56,0,0,1,26.78-6.32Q671,711.89,684.34,722.68Z" transform="translate(-186.52 -625.24)" style="fill:#fff"></path>
  <path d="M721.08,673.29q4.45-4,11.71-4t11.72,4A13.23,13.23,0,0,1,749,683.62a13,13,0,0,1-4.47,10.13q-4.46,4-11.72,4t-11.71-4a13,13,0,0,1-4.47-10.13A13.23,13.23,0,0,1,721.08,673.29Zm24.73,39.9v103H719.59v-103Z" transform="translate(-186.52 -625.24)" style="fill:#fff"></path>
  <path d="M844.3,718.21a46.36,46.36,0,0,1,18.88,18.32q6.89,12,6.88,28.18t-6.88,28.09a47.06,47.06,0,0,1-18.88,18.32,60.26,60.26,0,0,1-54.13,0A47,47,0,0,1,771.3,792.8q-6.88-11.89-6.89-28.09t6.89-28.18a46.34,46.34,0,0,1,18.87-18.32,61.11,61.11,0,0,1,54.13,0ZM798.64,742.3Q791,750,791,764.71t7.63,22.42a26.27,26.27,0,0,0,37.2,0q7.62-7.73,7.62-22.42t-7.62-22.41a26.27,26.27,0,0,0-37.2,0Z" transform="translate(-186.52 -625.24)" style="fill:#fff"></path>
  <path d="M987.24,713.19v103H961V795.4a32.79,32.79,0,0,1-13.48,16.28,40.15,40.15,0,0,1-21.67,5.86q-17.85,0-28.46-11.72t-10.6-32.74V713.19h26v56.92q0,12.27,6.33,19.06T936.28,796q11.34,0,18-7.25T961,767.88V713.19Z" transform="translate(-186.52 -625.24)" style="fill:#fff"></path>
  <path d="M1076.71,721.38q11.34,9.48,14.13,25.29h-24.55a20.44,20.44,0,0,0-6.7-11.9q-5.21-4.47-13.57-4.47-6.7,0-10.42,3.17a10.65,10.65,0,0,0-3.72,8.55,8.66,8.66,0,0,0,3,6.88,21.48,21.48,0,0,0,7.43,4.1q4.47,1.49,12.84,3.53a132.78,132.78,0,0,1,19.06,5.49,31.52,31.52,0,0,1,12.65,9.11q5.31,6.24,5.3,16.83a26,26,0,0,1-10.32,21.39q-10.32,8.19-27.81,8.19-20.09,0-32.18-9t-14.69-25.77h25.11a16.94,16.94,0,0,0,6.7,12q5.76,4.38,15.06,4.37,6.71,0,10.23-3.25a11,11,0,0,0,3.54-8.46,9.38,9.38,0,0,0-3.07-7.26,20.87,20.87,0,0,0-7.63-4.28q-4.56-1.49-12.92-3.53a145.91,145.91,0,0,1-18.7-5.3,29.86,29.86,0,0,1-12.27-8.65q-5.13-6-5.12-16.37a26.79,26.79,0,0,1,10.23-21.76q10.23-8.37,28.27-8.37Q1065.36,711.89,1076.71,721.38Z" transform="translate(-186.52 -625.24)" style="fill:#fff"></path>
</svg>
